<svg width="45" height="45" viewBox="0 0 45 45" fill="none" xmlns="http://www.w3.org/2000/svg">
<mask id="path-1-inside-1_2286_9" fill="white">
<path d="M45 22.5C45 34.9264 34.9264 45 22.5 45C10.0736 45 0 34.9264 0 22.5C0 10.0736 10.0736 0 22.5 0C34.9264 0 45 10.0736 45 22.5Z"/>
</mask>
<path d="M9.29289 21.2929C8.90237 21.6834 8.90237 22.3166 9.29289 22.7071L15.6569 29.0711C16.0474 29.4616 16.6805 29.4616 17.0711 29.0711C17.4616 28.6805 17.4616 28.0474 17.0711 27.6569L11.4142 22L17.0711 16.3431C17.4616 15.9526 17.4616 15.3195 17.0711 14.9289C16.6805 14.5384 16.0474 14.5384 15.6569 14.9289L9.29289 21.2929ZM35 22V21L10 21V22V23L35 23V22ZM45 22.5H43C43 33.8218 33.8218 43 22.5 43V45V47C36.031 47 47 36.031 47 22.5H45ZM22.5 45V43C11.1782 43 2 33.8218 2 22.5H0H-2C-2 36.031 8.96902 47 22.5 47V45ZM0 22.5H2C2 11.1782 11.1782 2 22.5 2V0V-2C8.96902 -2 -2 8.96902 -2 22.5H0ZM22.5 0V2C33.8218 2 43 11.1782 43 22.5H45H47C47 8.96902 36.031 -2 22.5 -2V0Z" fill="white" mask="url(#path-1-inside-1_2286_9)"/>
</svg>
