<svg width="216" height="135" viewBox="0 0 216 135" fill="none" xmlns="http://www.w3.org/2000/svg">
<path d="M75.8142 134.291L59.4431 80.2913H76.2479L83.8372 113.514H84.2708L93.2695 80.2913H106.497L115.495 113.619H115.929L123.518 80.2913H140.323L123.952 134.291H109.532L100.1 104.127H99.6662L90.2338 134.291H75.8142Z" fill="url(#paint0_linear_2303_6)"/>
<path d="M160.272 80.2913V134.291H145.202V80.2913H160.272Z" fill="url(#paint1_linear_2303_6)"/>
<path d="M215.443 80.2913V134.291H202.867L182.809 105.92H182.484V134.291H167.414V80.2913H180.207L199.939 108.557H200.373V80.2913H215.443Z" fill="url(#paint2_linear_2303_6)"/>
<path d="M39.0357 22.5848C38.8556 20.3308 38.0114 18.5727 36.5031 17.3105C35.0173 16.0483 32.7548 15.4171 29.7157 15.4171C27.7797 15.4171 26.1926 15.6538 24.9545 16.1271C23.7388 16.5779 22.8383 17.1978 22.253 17.9867C21.6677 18.7756 21.3638 19.6771 21.3413 20.6914C21.2963 21.5254 21.4426 22.2805 21.7803 22.9567C22.1405 23.6103 22.7033 24.2076 23.4687 24.7486C24.2341 25.267 25.2133 25.7403 26.4065 26.1686C27.5996 26.5968 29.0179 26.98 30.6612 27.3181L36.3342 28.5352C40.1612 29.3467 43.4367 30.4173 46.1607 31.7471C48.8846 33.077 51.1133 34.6435 52.8467 36.4467C54.5801 38.2273 55.852 40.2333 56.6625 42.4648C57.4954 44.6962 57.9231 47.1305 57.9457 49.7676C57.9231 54.3206 56.7863 58.1749 54.5351 61.3305C52.2839 64.486 49.0647 66.8865 44.8775 68.5319C40.7128 70.1773 35.7039 71 29.8508 71C23.8401 71 18.5948 70.1097 14.115 68.329C9.65761 66.5484 6.19078 63.8098 3.71447 60.1133C1.26067 56.3943 0.0225119 51.6384 0 45.8457H17.8294C17.942 47.9644 18.471 49.7451 19.4165 51.1876C20.362 52.6302 21.6902 53.7233 23.4011 54.4671C25.1345 55.2109 27.1944 55.5829 29.5807 55.5829C31.5842 55.5829 33.2613 55.3349 34.6121 54.839C35.9628 54.3432 36.9871 53.6557 37.6849 52.7767C38.3828 51.8976 38.743 50.8946 38.7655 49.7676C38.743 48.7083 38.3941 47.7841 37.7187 46.9952C37.0659 46.1838 35.9853 45.4625 34.477 44.8314C32.9687 44.1778 30.9314 43.5692 28.365 43.0057L21.4764 41.5181C15.3531 40.1883 10.5243 37.9681 6.98995 34.8576C3.47809 31.7246 1.73342 27.4533 1.75593 22.0438C1.73342 17.6486 2.90404 13.8056 5.26779 10.5148C7.65405 7.20143 10.952 4.62063 15.1618 2.77238C19.394 0.924127 24.2453 0 29.7157 0C35.2987 0 40.1275 0.935397 44.2021 2.80619C48.2768 4.67698 51.4172 7.31413 53.6234 10.7176C55.8521 14.0986 56.9776 18.0543 57.0002 22.5848H39.0357Z" fill="url(#paint3_linear_2303_6)"/>
<path d="M65.0876 70.1886V0.946667H94.9384C100.071 0.946667 104.562 1.96095 108.412 3.98953C112.261 6.0181 115.255 8.86936 117.394 12.5433C119.533 16.2173 120.602 20.5111 120.602 25.4248C120.602 30.3835 119.499 34.6773 117.293 38.3062C115.109 41.9351 112.036 44.73 108.074 46.691C104.134 48.6519 99.5308 49.6324 94.263 49.6324H76.4336V35.0267H90.481C92.6872 35.0267 94.5669 34.6435 96.1202 33.8771C97.6961 33.0883 98.9005 31.9725 99.7334 30.53C100.589 29.0875 101.017 27.3857 101.017 25.4248C101.017 23.4413 100.589 21.7508 99.7334 20.3533C98.9005 18.9333 97.6961 17.8514 96.1202 17.1076C94.5669 16.3413 92.6872 15.9581 90.481 15.9581H83.8625V70.1886H65.0876Z" fill="url(#paint4_linear_2303_6)"/>
<path d="M146.266 0.946667V70.1886H127.491V0.946667H146.266Z" fill="url(#paint5_linear_2303_6)"/>
<path d="M215 0.946667V70.1886H199.332L174.343 33.8095H173.938V70.1886H155.163V0.946667H171.102L195.685 37.1905H196.225V0.946667H215Z" fill="url(#paint6_linear_2303_6)"/>
<rect x="0.443115" y="80.2913" width="54" height="54" fill="#AC0000"/>
<path d="M7.71094 102.014V97.5423H25.6165V102.014H19.42V117.983H13.9075V102.014H7.71094Z" fill="white"/>
<path d="M46.7109 107.763C46.7109 110.038 46.265 111.958 45.373 113.522C44.4811 115.079 43.2774 116.26 41.7617 117.065C40.2461 117.864 38.5562 118.263 36.6918 118.263C34.8141 118.263 33.1174 117.86 31.6018 117.055C30.0929 116.243 28.8925 115.059 28.0006 113.502C27.1154 111.938 26.6728 110.025 26.6728 107.763C26.6728 105.487 27.1154 103.571 28.0006 102.014C28.8925 100.45 30.0929 99.269 31.6018 98.4705C33.1174 97.6654 34.8141 97.2628 36.6918 97.2628C38.5562 97.2628 40.2461 97.6654 41.7617 98.4705C43.2774 99.269 44.4811 100.45 45.373 102.014C46.265 103.571 46.7109 105.487 46.7109 107.763ZM40.957 107.763C40.957 106.538 40.7927 105.507 40.4641 104.669C40.1422 103.824 39.6627 103.185 39.0256 102.752C38.3952 102.313 37.6173 102.094 36.6918 102.094C35.7664 102.094 34.9851 102.313 34.348 102.752C33.7176 103.185 33.2381 103.824 32.9095 104.669C32.5876 105.507 32.4267 106.538 32.4267 107.763C32.4267 108.987 32.5876 110.022 32.9095 110.867C33.2381 111.705 33.7176 112.344 34.348 112.783C34.9851 113.216 35.7664 113.432 36.6918 113.432C37.6173 113.432 38.3952 113.216 39.0256 112.783C39.6627 112.344 40.1422 111.705 40.4641 110.867C40.7927 110.022 40.957 108.987 40.957 107.763Z" fill="white"/>
<defs>
<linearGradient id="paint0_linear_2303_6" x1="137.443" y1="80.2913" x2="137.443" y2="134.291" gradientUnits="userSpaceOnUse">
<stop stop-color="#F6D700"/>
<stop offset="0.5" stop-color="#DAAC00"/>
<stop offset="1" stop-color="#BE8200"/>
</linearGradient>
<linearGradient id="paint1_linear_2303_6" x1="137.443" y1="80.2913" x2="137.443" y2="134.291" gradientUnits="userSpaceOnUse">
<stop stop-color="#F6D700"/>
<stop offset="0.5" stop-color="#DAAC00"/>
<stop offset="1" stop-color="#BE8200"/>
</linearGradient>
<linearGradient id="paint2_linear_2303_6" x1="137.443" y1="80.2913" x2="137.443" y2="134.291" gradientUnits="userSpaceOnUse">
<stop stop-color="#F6D700"/>
<stop offset="0.5" stop-color="#DAAC00"/>
<stop offset="1" stop-color="#BE8200"/>
</linearGradient>
<linearGradient id="paint3_linear_2303_6" x1="107.443" y1="0.29126" x2="107.443" y2="119.291" gradientUnits="userSpaceOnUse">
<stop stop-color="white"/>
<stop offset="0.297045" stop-color="white"/>
<stop offset="0.860577" stop-color="#999999"/>
</linearGradient>
<linearGradient id="paint4_linear_2303_6" x1="107.443" y1="0.29126" x2="107.443" y2="119.291" gradientUnits="userSpaceOnUse">
<stop stop-color="white"/>
<stop offset="0.297045" stop-color="white"/>
<stop offset="0.860577" stop-color="#999999"/>
</linearGradient>
<linearGradient id="paint5_linear_2303_6" x1="107.443" y1="0.29126" x2="107.443" y2="119.291" gradientUnits="userSpaceOnUse">
<stop stop-color="white"/>
<stop offset="0.297045" stop-color="white"/>
<stop offset="0.860577" stop-color="#999999"/>
</linearGradient>
<linearGradient id="paint6_linear_2303_6" x1="107.443" y1="0.29126" x2="107.443" y2="119.291" gradientUnits="userSpaceOnUse">
<stop stop-color="white"/>
<stop offset="0.297045" stop-color="white"/>
<stop offset="0.860577" stop-color="#999999"/>
</linearGradient>
</defs>
</svg>
